<svg width="0" height="0" class="hidden"><symbol xmlns="http://www.w3.org/2000/svg" viewBox="0 0 64 64" id="sunny-side-up-egg-1"><title>Sunny Side Up Egg</title><desc>A line styled icon from Orion Icon Library.</desc><circle data-name="layer2" cx="28" cy="37" r="11" fill="none" stroke="#000000" stroke-linecap="butt" stroke-linejoin="miter" stroke-width="3"></circle><path data-name="layer1" d="M31 2C20.9 2 3 10.4 3 38c0 15.8 10 24 24 24 6.6 0 18-3.3 26-14s11.7-19.8 4-28S46.2 2 31 2z" fill="none" stroke="#000000" stroke-linecap="butt" stroke-linejoin="miter" stroke-width="3"></path></symbol><symbol xmlns="http://www.w3.org/2000/svg" viewBox="0 0 64 64" id="steak-1"><title>Steak</title><desc>A line styled icon from Orion Icon Library.</desc><path data-name="layer2" d="M2 30v8c0 15.8 7.1 22 26 22s34-12 34-23.3v-12" fill="none" stroke="#000000" stroke-linecap="butt" stroke-linejoin="miter" stroke-width="3"></path><path data-name="layer2" d="M45.8 19.1a2 2 0 0 0-2.7-.9l-14.9 6.5-11.1-6.4a2 2 0 0 0-2.2 3.3l8.7 8.2-1.5 9.5a2 2 0 0 0 1.3 2.5h.6a2 2 0 0 0 1.9-1.4l4.7-10.2 14.3-8.7a2 2 0 0 0 .9-2.4z" fill="none" stroke="#000000" stroke-linecap="butt" stroke-linejoin="miter" stroke-width="3"></path><path data-name="layer1" d="M12 10c4.2 0 3.8 2 11.8 2C40.6 12 41.4 4 52 4s10 18.6 10 20.7C62 36 46.9 52 28 52S2 43.8 2 28c0-14.2 5.3-18 10-18z" fill="none" stroke="#000000" stroke-linecap="butt" stroke-linejoin="miter" stroke-width="3"></path></symbol><symbol viewBox="0 0 64 64" xmlns="http://www.w3.org/2000/svg" id="ham-1"><title>Ham</title><desc>A line styled icon from Orion Icon Library.</desc><ellipse stroke-width="3" stroke-linejoin="miter" stroke-linecap="butt" stroke="#000000" fill="none" transform="rotate(-45 41.278 22.722)" ry="7.247" rx="5.178" cy="22.722" cx="41.278" data-name="layer2"></ellipse><path stroke-width="3" stroke-linejoin="miter" stroke-linecap="butt" stroke="#000000" fill="none" d="M10.785 46.774L8.75 48.81a4.131 4.131 0 0 0-5.537 6.12c2.142 2.143 2.934 1.471 3.658 2.2 1 1 .426 1.887 2.2 3.66a4.142 4.142 0 0 0 5.857-5.857 4.14 4.14 0 0 0-.334-.25l1.706-1.714" data-name="layer2"></path><ellipse stroke-width="3" stroke-linejoin="miter" stroke-linecap="butt" stroke="#000000" fill="none" transform="rotate(-45 41.278 22.721)" ry="24.847" rx="15.53" cy="22.722" cx="41.278" data-name="layer1"></ellipse><path stroke-width="3" stroke-linejoin="miter" stroke-linecap="butt" stroke="#000000" fill="none" d="M23.709 5.152C17.68 11.183 9.869 23.517 12 37.359c0 0 .965 4.893 0 5.857a4.146 4.146 0 0 0 0 5.858L14.926 52a4.14 4.14 0 0 0 5.855 0c.965-.965 5.857 0 5.857 0 13.842 2.129 26.176-5.682 32.209-11.711" data-name="layer1"></path></symbol><symbol xmlns="http://www.w3.org/2000/svg" viewBox="0 0 64 64" id="roast-chicken-1"><title>Roast Chicken</title><desc>A line styled icon from Orion Icon Library.</desc><path data-name="layer1" d="M54.865 25.717l2.326-2.327a2.94 2.94 0 0 0 3.94-4.356c-1.524-1.522-2.088-1.046-2.604-1.562-.709-.708-.3-1.343-1.564-2.604a2.947 2.947 0 1 0-4.168 4.166c.072.072.16.115.238.18l-2.818 2.815" fill="none" stroke="#000000" stroke-linecap="butt" stroke-miterlimit="10" stroke-width="3" stroke-linejoin="miter"></path><path data-name="layer2" d="M34.289 43.082a10.073 10.073 0 0 0 14.242 0 10.25 10.25 0 0 0 .737-.826c.048-.06.091-.127.138-.19.16-.208.317-.417.457-.632 2.973-4.46 3.235-11.059 4.434-12.256l.34-.34a2.399 2.399 0 0 0 0-3.39l-2.713-2.715a2.4 2.4 0 0 0-3.393 0l-.34.34c-1.283 1.284-8.416 1.146-13.115 5.06a10.423 10.423 0 0 0-.787.706 10.07 10.07 0 0 0 0 14.243z" fill="none" stroke="#000000" stroke-linecap="butt" stroke-miterlimit="10" stroke-width="3" stroke-linejoin="miter"></path><path data-name="layer2" d="M49.746 22.031C43.996 12 15.996 4 3.376 31.154c-3.59 8 2.628 14.877 10.628 14.877H41.83" fill="none" stroke="#000000" stroke-linecap="butt" stroke-miterlimit="10" stroke-width="3" stroke-linejoin="miter"></path><path data-name="layer1" fill="none" stroke="#000000" stroke-linecap="butt" stroke-miterlimit="10" stroke-width="3" d="M2 52h55.996" stroke-linejoin="miter"></path></symbol><symbol viewBox="0 0 64 64" xmlns="http://www.w3.org/2000/svg" id="seafood-1"><title>Seafood</title><desc>A line styled icon from Orion Icon Library.</desc><path stroke-width="3" stroke-linejoin="miter" stroke-linecap="butt" stroke="#000000" fill="none" d="M56.35 25.418c.33 4.916-2.16 14.242-7.207 19.035-2.346-5.166-7.509-7.295-7.048-7.193m-5.81-29.105c-11.428 0-20 8.713-20 8.713s9.834.9 10.117 4.434" data-name="layer2"></path><path stroke-width="3" stroke-linejoin="miter" stroke-linecap="butt" stroke="#000000" fill="none" d="M39.969 6.1a28 28 0 0 0-8.978 7.83c-7.094 9.508-10.432 21.324-12.733 31.8A122.8 122.8 0 0 0 42 37.194c6.875-3.377 11.381-7.461 14.344-11.777M14.738 62c1.179-4.473 2.172-10.143 3.518-16.271A125.052 125.052 0 0 1 2 48.809S13.145 52.457 14.738 62z" data-name="layer2"></path><ellipse stroke-width="3" stroke-linejoin="miter" stroke-linecap="butt" stroke="#000000" fill="none" ry="2.054" rx="2.021" cy="11.685" cx="51.878" data-name="layer1"></ellipse><path stroke-width="3" stroke-linejoin="miter" stroke-linecap="butt" stroke="#000000" fill="none" d="M39.969 6.1c0 9.629 4.914 17.547 16.375 19.316C61.754 17.536 62 8.881 62 2.348c0 0-11.561-2.033-22.031 3.752z" data-name="layer1"></path></symbol><symbol xmlns="http://www.w3.org/2000/svg" viewBox="0 0 64 64" id="cheese-1"><title>Cheese</title><desc>A line styled icon from Orion Icon Library.</desc><circle data-name="layer2" cx="47" cy="38" r="3" fill="none" stroke="#000000" stroke-linecap="butt" stroke-linejoin="miter" stroke-width="3"></circle><circle data-name="layer2" cx="35" cy="47" r="5" fill="none" stroke="#000000" stroke-linecap="butt" stroke-linejoin="miter" stroke-width="3"></circle><circle data-name="layer2" cx="26.1" cy="36" r="2" fill="none" stroke="#000000" stroke-linecap="butt" stroke-linejoin="miter" stroke-width="3"></circle><circle data-name="layer2" cx="16" cy="46" r="2" fill="none" stroke="#000000" stroke-linecap="butt" stroke-linejoin="miter" stroke-width="3"></circle><circle data-name="layer2" cx="12" cy="34" r="4" fill="none" stroke="#000000" stroke-linecap="butt" stroke-linejoin="miter" stroke-width="3"></circle><path data-name="layer1" d="M62 30L30 2S2 5.3 2 22l60 8z" fill="none" stroke="#000000" stroke-linecap="butt" stroke-linejoin="miter" stroke-width="3"></path><path data-name="layer1" d="M2 22v32l60 8v-6.2l-1.5.3a5 5 0 0 1 0-10l1.5.3V30" fill="none" stroke="#000000" stroke-linecap="butt" stroke-linejoin="miter" stroke-width="3"></path></symbol><symbol xmlns="http://www.w3.org/2000/svg" viewBox="0 0 64 64" id="wheat-1"><title>Wheat</title><desc>A line styled icon from Orion Icon Library.</desc><path data-name="layer2" d="M55.9 2.8S50.7 1 47.4 4.2a5 5 0 0 0 7.1 7.1c3.1-3.1 1.4-8.5 1.4-8.5zm-14.1 7.8c0-4.4-5-7-5-7s-5 2.5-5 7a5 5 0 1 0 10 0zm6 6c4.4 0 7 5 7 5s-2.5 5-7 5a5 5 0 0 1 0-10zm-16.1 4.2c0-4.4-5-7-5-7s-5 2.5-5 7a5 5 0 1 0 10 0zm6 6c4.4 0 7 5 7 5s-2.5 5-7 5a5 5 0 0 1 0-10zm-15.9 3.9c0-4.4-5-7-5-7s-5 2.5-5 7a5 5 0 0 0 10 0zm6 6c4.4 0 7 5 7 5s-2.5 5-7 5a5 5 0 0 1 0-10z" fill="none" stroke="#000000" stroke-linecap="butt" stroke-linejoin="miter" stroke-width="3"></path><path data-name="layer1" fill="none" stroke="#000000" stroke-linecap="butt" stroke-linejoin="miter" stroke-width="3" d="M17.5 40.8l-9.9 9.9m5.2 2.3c6.5-6.5 18.4-4.2 26.9 4.2-7.5 7.5-17.5 5.2-26.9-4.2z"></path></symbol></svg>