<svg xmlns="http://www.w3.org/2000/svg" width="36.288" height="34" viewBox="0 0 36.288 34"><g transform="translate(-1 -3)"><path d="M2,27.729V32.3c0,9.029,4.057,12.571,14.857,12.571s19.429-6.857,19.429-13.314V24.7" transform="translate(0 -8.871)" fill="none" stroke="currentColor" stroke-linecap="round" stroke-linejoin="round" stroke-width="2"/><path d="M32.264,18.621a1.143,1.143,0,0,0-1.543-.514l-8.514,3.714-6.343-3.657a1.143,1.143,0,0,0-1.257,1.886l4.971,4.686-.857,5.429a1.143,1.143,0,0,0,.743,1.429h.343a1.143,1.143,0,0,0,1.086-.8l2.686-5.829,8.171-4.971A1.143,1.143,0,0,0,32.264,18.621Z" transform="translate(-5.235 -5.993)" fill="none" stroke="currentColor" stroke-linecap="round" stroke-linejoin="round" stroke-width="2"/><path d="M7.714,7.429c2.4,0,2.171,1.143,6.743,1.143C24.057,8.571,24.514,4,30.571,4s5.714,10.629,5.714,11.829c0,6.457-8.629,15.6-19.429,15.6S2,26.743,2,17.714C2,9.6,5.029,7.429,7.714,7.429Z" fill="none" stroke="currentColor" stroke-linecap="round" stroke-linejoin="round" stroke-width="2"/></g></svg>
