<svg xmlns="http://www.w3.org/2000/svg" width="38.034" height="38.11" viewBox="0 0 38.034 38.11"><g transform="translate(-0.967 -0.891)"><path d="M40.325,18.513c.2,2.95-1.3,8.545-4.324,11.421a10.137,10.137,0,0,0-4.229-4.316M28.285,8.155c-6.857,0-12,5.228-12,5.228s5.9.54,6.07,2.66" transform="translate(-5.714 -2.461)" fill="none" stroke="currentColor" stroke-linecap="round" stroke-linejoin="round" stroke-width="2"/><path d="M24.782,6.1A16.8,16.8,0,0,0,19.4,10.8c-4.257,5.7-6.259,12.795-7.64,19.081A73.682,73.682,0,0,0,26,24.757a21.635,21.635,0,0,0,8.607-7.066M9.643,39.641c.707-2.684,1.3-6.086,2.111-9.763A75.033,75.033,0,0,1,2,31.726S8.687,33.915,9.643,39.641Z" transform="translate(0 -1.639)" fill="none" stroke="currentColor" stroke-linecap="round" stroke-linejoin="round" stroke-width="2"/><ellipse cx="1.213" cy="1.232" rx="1.213" ry="1.232" transform="translate(30.715 6.579)" stroke-width="2" stroke="currentColor" stroke-linecap="round" stroke-linejoin="round" fill="none"/><path d="M39.969,4.461c0,5.778,2.948,10.528,9.825,11.59,3.246-4.728,3.394-9.921,3.394-13.841A22.273,22.273,0,0,0,39.969,4.461Z" transform="translate(-15.187)" fill="none" stroke="currentColor" stroke-linecap="round" stroke-linejoin="round" stroke-width="2"/></g></svg>
