<svg xmlns="http://www.w3.org/2000/svg" width="37.826" height="37.658" viewBox="0 0 37.826 37.658"><g transform="translate(-0.827 7.244)"><ellipse cx="2.69" cy="3.765" rx="2.69" ry="3.765" transform="translate(17.839 8.245) rotate(-45)" stroke-width="2" stroke="currentColor" stroke-linecap="square" stroke-linejoin="round" fill="none"/><path d="M6.561,46.774,5.5,47.832a2.146,2.146,0,0,0-2.877,3.18c1.113,1.113,1.524.764,1.9,1.143.52.52.221.98,1.143,1.9a2.152,2.152,0,1,0,3.043-3.043,2.151,2.151,0,0,0-.174-.13l.886-.891" transform="translate(0 -25.273)" fill="none" stroke="currentColor" stroke-linecap="square" stroke-linejoin="round" stroke-width="2"/><ellipse cx="8.069" cy="12.91" rx="8.069" ry="12.91" transform="translate(7.57 5.582) rotate(-45)" stroke-width="2" stroke="currentColor" stroke-linecap="square" stroke-linejoin="round" fill="none"/><path d="M17.5,5.152c-3.132,3.133-7.191,9.542-6.084,16.734,0,0,.5,2.542,0,3.043a2.154,2.154,0,0,0,0,3.044l1.52,1.52a2.151,2.151,0,0,0,3.042,0c.5-.5,3.043,0,3.043,0,7.192,1.106,13.6-2.952,16.735-6.085" transform="translate(-4.226 -5.276)" fill="none" stroke="currentColor" stroke-linecap="square" stroke-linejoin="round" stroke-width="2"/></g></svg>
