<svg xmlns="http://www.w3.org/2000/svg" width="38.146" height="25.614" viewBox="0 0 38.146 25.614"><g transform="translate(-1 -11.645)"><path d="M53.005,21.032l1.4-1.4a1.764,1.764,0,0,0,2.364-2.614c-.914-.913-1.253-.628-1.562-.937-.425-.425-.18-.806-.938-1.562a1.768,1.768,0,1,0-2.5,2.5c.043.043.1.069.143.108l-1.691,1.689" transform="translate(-19.285 -0.544)" fill="none" stroke="currentColor" stroke-linecap="round" stroke-linejoin="round" stroke-miterlimit="10" stroke-width="2"/><path d="M33.109,34.662a6.044,6.044,0,0,0,8.545,0,6.151,6.151,0,0,0,.442-.5c.029-.036.055-.076.083-.114.1-.125.19-.25.274-.379,1.784-2.676,1.941-6.636,2.66-7.354l.2-.2a1.439,1.439,0,0,0,0-2.034L43.69,22.452a1.44,1.44,0,0,0-2.036,0l-.2.2c-.77.77-5.05.688-7.869,3.036a6.254,6.254,0,0,0-.472.424A6.042,6.042,0,0,0,33.109,34.662Z" transform="translate(-11.735 -3.754)" fill="none" stroke="currentColor" stroke-linecap="round" stroke-linejoin="round" stroke-miterlimit="10" stroke-width="2"/><path d="M30.782,18.277c-3.45-6.019-20.25-10.819-27.823,5.474-2.154,4.8,1.577,8.926,6.377,8.926h16.7" transform="translate(-0.134 0)" fill="none" stroke="currentColor" stroke-linecap="round" stroke-linejoin="round" stroke-miterlimit="10" stroke-width="2"/><path d="M2,52H35.6" transform="translate(0 -15.742)" fill="none" stroke="currentColor" stroke-linecap="round" stroke-linejoin="round" stroke-miterlimit="10" stroke-width="2"/></g></svg>
