<svg xmlns="http://www.w3.org/2000/svg" width="28.777" height="34.092" viewBox="0 0 28.777 34.092"><g transform="translate(-803.981 -477.788)"><path d="M35.568,2.567s-2.8-.97-4.581.755a2.706,2.706,0,1,0,3.827,3.827c1.671-1.671.755-4.581.755-4.581Zm-7.6,4.2C27.969,4.4,25.274,3,25.274,3s-2.695,1.347-2.695,3.773a2.695,2.695,0,0,0,5.39,0ZM31.2,10.005c2.371,0,3.773,2.695,3.773,2.695s-1.347,2.695-3.773,2.695a2.695,2.695,0,1,1,0-5.39Zm-8.677,2.264C22.525,9.9,19.83,8.5,19.83,8.5s-2.695,1.347-2.695,3.773a2.695,2.695,0,1,0,5.39,0ZM25.759,15.5c2.371,0,3.773,2.695,3.773,2.695s-1.347,2.695-3.773,2.695a2.695,2.695,0,0,1,0-5.39ZM17.19,17.6c0-2.371-2.695-3.773-2.695-3.773S11.8,15.179,11.8,17.6a2.695,2.695,0,0,0,5.39,0Zm3.234,3.234c2.371,0,3.773,2.695,3.773,2.695s-1.347,2.695-3.773,2.695a2.695,2.695,0,1,1,0-5.39Z" transform="translate(795.859 476.578)" fill="none" stroke="currentColor" stroke-linecap="square" stroke-linejoin="round" stroke-width="2"/><path d="M12.936,40.8,7.6,46.136m2.8,1.24c3.5-3.5,9.917-2.264,14.5,2.264-4.042,4.042-9.432,2.8-14.5-2.264Z" transform="translate(797.795 458.826)" fill="none" stroke="currentColor" stroke-linecap="square" stroke-linejoin="round" stroke-width="2"/></g></svg>
